<?xml version="1.0" encoding="UTF-8"?>
<svg version="1.1" xmlns="http://www.w3.org/2000/svg" width="449" height="449">
<path d="M0 0 C2.20570851 -0.00968797 4.41047736 -0.04072695 6.6159668 -0.07226562 C8.03327902 -0.07879854 9.45059785 -0.08404788 10.86791992 -0.08789062 C12.14642822 -0.09723633 13.42493652 -0.10658203 14.7421875 -0.11621094 C20.11100308 0.40541485 24.02978932 1.75010086 27.78588867 5.80273438 C33.09924161 13.77276379 30.41088867 13.43632386 30.41088867 28.24023438 C94.43088867 28.24023438 158.45088867 28.24023438 224.41088867 28.24023438 C224.41088867 22.30023437 224.41088867 16.36023437 224.41088867 10.24023438 C229.83678571 2.10138882 229.83678571 2.10138882 234.08935547 0.67871094 C239.29664494 -0.30480908 244.71196776 0.01405613 250 0 C252.20570851 -0.00968797 254.41047736 -0.04072695 256.6159668 -0.07226562 C258.03327902 -0.07879854 259.45059785 -0.08404788 260.86791992 -0.08789062 C262.14642822 -0.09723633 263.42493652 -0.10658203 264.7421875 -0.11621094 C270.11100308 0.40541485 274.02978932 1.75010086 277.78588867 5.80273438 C279.91228498 8.99232884 280.53515285 10.59472075 280.50854492 14.37304688 C280.50532227 15.17871094 280.50209961 15.984375 280.4987793 16.81445312 C280.49040039 17.65621094 280.48202148 18.49796875 280.47338867 19.36523438 C280.46887695 20.21472656 280.46436523 21.06421875 280.4597168 21.93945312 C280.44791741 24.03974346 280.42998173 26.13999768 280.41088867 28.24023438 C280.97750214 28.23135193 281.5441156 28.22246948 282.12789917 28.21331787 C288.06587559 28.12429987 294.00366011 28.06427608 299.94213867 28.02050781 C302.15348012 28.00048691 304.36476926 27.97326178 306.57592773 27.93847656 C309.76844245 27.8895381 312.96025263 27.8671697 316.15307617 27.84960938 C317.61775833 27.81864166 317.61775833 27.81864166 319.11203003 27.78704834 C327.14122871 27.78446829 334.35114817 29.61940097 340.78588867 34.61523438 C348.38913227 42.21847797 350.53048593 50.17411247 350.54231644 60.68216324 C350.54615758 61.96634872 350.54999873 63.2505342 350.55395627 64.57363439 C350.55317612 65.9914928 350.55229735 67.40935117 350.55133057 68.82720947 C350.55391562 70.33906338 350.55692917 71.85091661 350.56033397 73.36276889 C350.56839062 77.51428768 350.57019279 81.66578918 350.57093143 85.81731486 C350.57278429 90.29597482 350.58033274 94.77462585 350.58706665 99.25328064 C350.60064048 109.0446056 350.60667306 118.83592645 350.61107731 128.62725925 C350.61384104 134.74181009 350.61807861 140.85635935 350.62258148 146.97090912 C350.63477235 163.90309678 350.64507239 180.83528317 350.64845657 197.76747513 C350.64867614 198.85086211 350.64889571 199.93424909 350.64912193 201.05046599 C350.6493402 202.1364287 350.64955848 203.22239142 350.64978337 204.3412621 C350.65022684 206.54179843 350.6506734 208.74233476 350.65112305 210.94287109 C350.65134448 212.0344106 350.65156591 213.12595011 350.65179405 214.25056657 C350.65574244 231.93909815 350.67319854 249.62758854 350.69648257 267.3161042 C350.72019947 285.48016341 350.73265856 303.64420195 350.73382449 321.80827689 C350.734741 332.00534798 350.74048738 342.20236539 350.7586441 352.39942169 C350.77404955 361.08183859 350.77916287 369.7641852 350.770906 378.44661316 C350.76700124 382.87517941 350.76792066 387.30360414 350.78196335 391.73215294 C350.79471238 395.78988012 350.79349602 399.8473596 350.78137264 403.90508649 C350.77941739 405.36941153 350.78248611 406.83375417 350.791217 408.29805449 C350.85396104 419.53681839 350.3676853 429.12519394 342.29370117 437.48632812 C332.27480473 446.81928353 321.54071508 446.53470269 308.43139648 446.49420166 C306.80487046 446.49650816 305.17834548 446.49968595 303.55182266 446.50365615 C299.09728373 446.51198676 294.64283075 446.50788675 290.18829155 446.50168371 C285.37841084 446.49715314 280.56854478 446.50414599 275.75866699 446.50964355 C266.34203843 446.51853272 256.92544176 446.51661766 247.50881195 446.51081827 C239.85511514 446.50629992 232.20142726 446.50568963 224.54772949 446.50786591 C223.45805508 446.50817237 222.36838067 446.50847884 221.24568582 446.50879459 C219.0319732 446.50943405 216.81826059 446.51008247 214.60454798 446.51073977 C193.8507989 446.51644167 173.0970675 446.50988737 152.34332132 446.49913904 C134.53901201 446.49020366 116.73472877 446.49175574 98.93041992 446.50097656 C78.25048773 446.51168166 57.57057102 446.51589236 36.89063644 446.50975204 C34.68510692 446.50911494 32.47957738 446.5084862 30.27404785 446.50786591 C29.1889097 446.50755735 28.10377156 446.5072488 26.98575044 446.5069309 C19.34201832 446.50520469 11.69829603 446.50811749 4.05456543 446.51282501 C-5.26167405 446.5184365 -14.57787983 446.51691173 -23.89411545 446.50626352 C-28.64658716 446.50101045 -33.39900271 446.49894391 -38.151474 446.50556183 C-42.50381983 446.51153086 -46.85605752 446.50823038 -51.20839357 446.49760672 C-52.78095153 446.49537675 -54.35351866 446.49649993 -55.92607069 446.5013583 C-68.64948444 446.53764491 -78.68826196 446.05060558 -88.58911133 437.24023438 C-96.27722725 428.24082766 -95.88144302 417.57678109 -95.84980774 406.33009338 C-95.85283065 404.80754994 -95.85672083 403.28500801 -95.86140031 401.76246876 C-95.87167097 397.59071204 -95.86950087 393.41904136 -95.86521971 389.24727762 C-95.86275082 384.74344545 -95.87176864 380.23963392 -95.8792572 375.73580933 C-95.89200134 366.91729086 -95.89379828 358.09880285 -95.89145694 349.28027672 C-95.88967343 342.11234857 -95.89142413 334.94442966 -95.89568138 327.77650261 C-95.89627657 326.75607674 -95.89687176 325.73565087 -95.89748498 324.684303 C-95.89869674 322.61127385 -95.89991088 320.5382447 -95.90112736 318.46521556 C-95.91200164 299.02817388 -95.90984084 279.59114956 -95.90374251 260.15410691 C-95.89857253 242.37449271 -95.90983116 224.59493328 -95.92884073 206.81532992 C-95.94821435 188.55515762 -95.95647603 170.29501125 -95.95271748 152.0348286 C-95.95080484 141.78472684 -95.95329929 131.5346717 -95.96743202 121.28457832 C-95.97934065 112.55935685 -95.98075645 103.83421073 -95.96864185 95.10898823 C-95.96274977 90.65825804 -95.96166291 86.2076657 -95.97364426 81.75694466 C-95.98449121 77.68022289 -95.9814139 73.60375427 -95.96738257 69.52704441 C-95.96473239 68.05472412 -95.96711229 66.58238407 -95.97511844 65.11008317 C-96.03415802 53.44006855 -94.99053354 43.88709139 -86.58911133 35.24023438 C-78.79623782 29.11170711 -71.41444614 27.94457912 -61.72192383 28.04492188 C-60.6871994 28.04775177 -59.65247498 28.05058167 -58.58639526 28.05349731 C-55.29551419 28.0646539 -52.00490955 28.0897504 -48.71411133 28.11523438 C-46.4771361 28.12527001 -44.2401566 28.13439484 -42.00317383 28.14257812 C-36.53172603 28.16457842 -31.06043843 28.19801099 -25.58911133 28.24023438 C-25.62391602 26.99886719 -25.6587207 25.7575 -25.69458008 24.47851562 C-25.72272717 22.83660212 -25.75002634 21.19467392 -25.77661133 19.55273438 C-25.80174805 18.73611328 -25.82688477 17.91949219 -25.8527832 17.078125 C-25.91116258 12.27155619 -25.70452638 9.14933849 -22.58911133 5.24023438 C-15.85955307 -0.97166555 -8.69617676 0.02311532 0 0 Z M-10.58911133 15.24023438 C-10.58911133 33.39023438 -10.58911133 51.54023438 -10.58911133 70.24023438 C-2.00911133 70.24023438 6.57088867 70.24023438 15.41088867 70.24023438 C15.41088867 52.09023437 15.41088867 33.94023437 15.41088867 15.24023438 C6.83088867 15.24023438 -1.74911133 15.24023438 -10.58911133 15.24023438 Z M239.41088867 15.24023438 C239.41088867 33.39023438 239.41088867 51.54023438 239.41088867 70.24023438 C247.99088867 70.24023438 256.57088867 70.24023438 265.41088867 70.24023438 C265.41088867 52.09023437 265.41088867 33.94023437 265.41088867 15.24023438 C256.83088867 15.24023438 248.25088867 15.24023438 239.41088867 15.24023438 Z M-66.58911133 61.24023438 C-66.58911133 77.74023438 -66.58911133 94.24023438 -66.58911133 111.24023438 C61.45088867 111.24023438 189.49088867 111.24023438 321.41088867 111.24023438 C321.41088867 94.74023438 321.41088867 78.24023438 321.41088867 61.24023438 C317.89026859 56.89371452 317.89026859 56.89371452 313.56030273 56.78613281 C312.01556159 56.7867631 310.47072597 56.80918703 308.92651367 56.84960938 C307.70312286 56.85809906 307.70312286 56.85809906 306.45501709 56.86676025 C303.85637095 56.8891071 301.25911626 56.93929816 298.66088867 56.99023438 C296.8965857 57.01030166 295.13226107 57.02855204 293.36791992 57.04492188 C289.0483754 57.08896608 284.72986774 57.15798016 280.41088867 57.24023438 C280.38510742 58.47 280.35932617 59.69976562 280.33276367 60.96679688 C280.27645861 62.59964369 280.21911182 64.23245482 280.16088867 65.86523438 C280.14670898 66.67347656 280.1325293 67.48171875 280.11791992 68.31445312 C279.89901136 73.69960376 279.06861416 77.0247706 275.41088867 81.24023438 C271.80058928 84.09182162 267.28492429 83.54606228 262.88354492 83.54101562 C262.05761337 83.54530075 261.23168182 83.54958588 260.38072205 83.55400085 C258.63663651 83.55973503 256.89252706 83.56025114 255.1484375 83.5559082 C252.48615543 83.55274952 249.82498646 83.57621343 247.1628418 83.6015625 C245.46557757 83.60383579 243.76831036 83.60453885 242.07104492 83.60351562 C240.88177147 83.61733025 240.88177147 83.61733025 239.66847229 83.63142395 C235.11280699 83.59346237 232.04794493 83.27325217 228.41088867 80.24023438 C225.41088867 75.24023438 225.41088867 75.24023438 224.41088867 57.24023438 C160.39088867 57.24023438 96.37088867 57.24023438 30.41088867 57.24023438 C30.08088867 63.18023437 29.75088867 69.12023437 29.41088867 75.24023438 C24.69496611 82.31411822 24.69496611 82.31411822 21.41088867 83.24023438 C18.53519246 83.44469359 15.75911165 83.54431277 12.88354492 83.54101562 C12.05761337 83.54530075 11.23168182 83.54958588 10.38072205 83.55400085 C8.63663651 83.55973503 6.89252706 83.56025114 5.1484375 83.5559082 C2.48615543 83.55274952 -0.17501354 83.57621343 -2.8371582 83.6015625 C-4.53442243 83.60383579 -6.23168964 83.60453885 -7.92895508 83.60351562 C-9.11822853 83.61733025 -9.11822853 83.61733025 -10.33152771 83.63142395 C-14.88719301 83.59346237 -17.95205507 83.27325217 -21.58911133 80.24023438 C-25.24327356 75.89234598 -25.12660503 71.35796246 -25.27661133 65.92773438 C-25.31077148 65.09177734 -25.34493164 64.25582031 -25.38012695 63.39453125 C-25.46216594 61.34355666 -25.52732643 59.291919 -25.58911133 57.24023438 C-30.78518119 57.14127612 -35.98070131 57.06872445 -41.17749023 57.02050781 C-42.94484005 57.00040587 -44.71212346 56.97311966 -46.47924805 56.93847656 C-49.02124418 56.88989429 -51.56236029 56.86725212 -54.10473633 56.84960938 C-54.89342102 56.82896423 -55.68210571 56.80831909 -56.49468994 56.78704834 C-61.92248658 56.7848337 -62.4672767 57.11839975 -66.58911133 61.24023438 Z M-66.58911133 126.24023438 C-66.69223633 173.51273438 -66.79536133 220.78523438 -66.90161133 269.49023438 C-66.94713135 284.43723633 -66.99265137 299.38423828 -67.03955078 314.78417969 C-67.05626908 328.13900468 -67.05626908 328.13900468 -67.06632996 341.49383545 C-67.07100343 347.45959256 -67.0893893 353.42511707 -67.11698914 359.39080811 C-67.14875014 366.26606163 -67.16330662 373.14109112 -67.15633608 380.01641862 C-67.15331554 383.53576788 -67.15820183 387.05461601 -67.18518698 390.573874 C-67.20989654 394.33752615 -67.20412215 398.09990778 -67.19038391 401.86358643 C-67.20494723 402.9683218 -67.21951056 404.07305717 -67.23451519 405.21126938 C-67.22456083 406.21928352 -67.21460648 407.22729767 -67.20435047 408.2658577 C-67.20624907 409.13617669 -67.20814767 410.00649569 -67.21010381 410.90318799 C-66.28378489 414.38930151 -64.63622886 415.41227275 -61.58911133 417.24023438 C-58.49356595 417.83536697 -58.49356595 417.83536697 -55.08447266 417.74359894 C-54.12075792 417.75231958 -54.12075792 417.75231958 -53.1375742 417.7612164 C-50.98171563 417.77583072 -48.8269931 417.76192596 -46.67114258 417.74816895 C-45.1112103 417.75277733 -43.55128236 417.75912983 -41.99136353 417.76707792 C-37.70240053 417.78380306 -33.41379275 417.77551052 -29.12482834 417.76313305 C-24.50034914 417.75409786 -19.87593183 417.76804466 -15.25146484 417.77905273 C-6.19120269 417.79685894 2.86892707 417.79298862 11.92919445 417.78140217 C19.29126766 417.77237638 26.65330371 417.77114014 34.01538086 417.77549744 C35.06234634 417.77611037 36.10931183 417.7767233 37.18800354 417.77735481 C39.31475323 417.77863368 41.4415029 417.77993053 43.56825256 417.78124517 C63.52070416 417.79265713 83.4730823 417.77952761 103.42552185 417.75804371 C120.55349342 417.74017218 137.68135656 417.74327611 154.80932617 417.76171875 C174.68934923 417.78311459 194.56930786 417.79155843 214.44934082 417.7792697 C216.56835936 417.77799547 218.68737792 417.77673799 220.80639648 417.77549744 C221.84905167 417.77488033 222.89170685 417.77426323 223.96595764 417.77362743 C231.32098942 417.77017067 238.6759804 417.77600989 246.03100586 417.78541565 C254.99176562 417.79662272 263.95238519 417.79362281 272.91312885 417.77229267 C277.48691336 417.76176484 282.06046394 417.75768985 286.63424683 417.77088928 C290.81889611 417.78278326 295.00309401 417.77630046 299.18770218 417.75497907 C300.70377785 417.75050025 302.21989142 417.75280793 303.73594284 417.76248223 C305.79325785 417.77460632 307.84901686 417.76221482 309.90625 417.74359894 C311.04991531 417.74294953 312.19358063 417.74230012 313.37190247 417.74163103 C317.14934811 417.11839733 318.80625735 416.02510298 321.41088867 413.24023438 C322.14564076 410.88139618 322.14564076 410.88139618 322.02612782 408.2658577 C322.03608217 407.25784355 322.04603653 406.24982941 322.05629253 405.21126938 C322.04172921 404.106534 322.02716589 403.00179863 322.01216125 401.86358643 C322.01644135 400.69102798 322.02072144 399.51846954 322.02513123 398.31037903 C322.03197562 395.04815057 322.01626571 391.78691009 321.99125232 388.52479845 C321.96944486 384.95599245 321.97672363 381.38722521 321.98034191 377.81837082 C321.98300216 370.88812222 321.95989717 363.95819708 321.92783527 357.02803163 C321.89186414 349.01328457 321.88786317 340.99873235 321.88391113 332.98388672 C321.85764915 311.81928459 321.7878437 290.65475465 321.72338867 269.49023438 C321.56870117 198.58148438 321.56870117 198.58148438 321.41088867 126.24023438 C193.37088867 126.24023438 65.33088867 126.24023438 -66.58911133 126.24023438 Z " fill="#000000" transform="translate(97.589111328125,1.759765625)"/>
<path d="M0 0 C0.66 0 1.32 0 2 0 C2.35602295 0.66717041 2.7120459 1.33434082 3.07885742 2.02172852 C10.56176481 16.02660061 18.13920482 29.96009525 26.02734375 43.7421875 C27.93923899 47.09151981 29.78592592 50.46188176 31.56640625 53.8828125 C31.96045654 54.62644043 32.35450684 55.37006836 32.76049805 56.13623047 C33.47334338 57.48821621 34.17047923 58.84867758 34.84692383 60.21923828 C37.34171858 64.89848881 40.11832377 66.49180394 45 68 C49.20671516 68.95547868 53.43715364 69.73529875 57.6861496 70.47841072 C59.83131422 70.85368097 61.97439305 71.23932281 64.11724854 71.62754822 C68.65984954 72.44854739 73.20479823 73.25604487 77.75 74.0625 C83.03338917 75.00122258 88.31570557 75.94548587 93.59610748 76.900877 C95.70619493 77.28009186 97.81768516 77.65063755 99.92938232 78.02076721 C101.20791077 78.2511821 102.48643921 78.48159698 103.80371094 78.71899414 C104.93065369 78.91868301 106.05759644 79.11837189 107.21868896 79.32411194 C110 80 110 80 113 82 C105.53497447 90.01323834 98.05933601 98.01650558 90.5625 106 C89.58893555 107.03918579 89.58893555 107.03918579 88.59570312 108.09936523 C84.96692429 111.95936241 81.27433223 115.73906262 77.51586914 119.47265625 C75.11772265 121.88895589 72.90957082 124.44248649 70.7109375 127.0390625 C69 129 69 129 67.2265625 130.7109375 C64.95348358 132.98401642 63.18258147 134.79760025 62.68823242 138.05316162 C62.82311712 145.4150985 63.72342883 152.60454554 64.75 159.890625 C65.02130435 161.88204696 65.29260455 163.87346949 65.56365967 165.86492538 C65.9412525 168.62738946 66.32480308 171.38901238 66.70849609 174.15063477 C67.3819179 179.00051256 68.05016933 183.85109092 68.71191406 188.70257568 C69.06388844 191.27854426 69.41984713 193.85397237 69.78027344 196.42877197 C69.94043945 197.59728699 70.10060547 198.765802 70.265625 199.96972656 C70.40774414 200.9921344 70.54986328 202.01454224 70.69628906 203.06793213 C71.00693711 206.06697181 71.05271768 208.98717041 71 212 C61.77264453 208.30995454 52.81381132 204.14624221 43.84820557 199.86883545 C39.86954943 197.97314898 35.88343542 196.09324571 31.8984375 194.2109375 C27.7560719 192.25337046 23.61476806 190.29398983 19.48144531 188.31738281 C16.70225758 186.98928323 13.91552511 185.67905473 11.125 184.375 C10.36123047 184.00342773 9.59746094 183.63185547 8.81054688 183.24902344 C4.31441444 181.17532247 1.77108779 180.88510921 -3 182 C-5.70632634 183.01620433 -5.70632634 183.01620433 -8.41015625 184.34375 C-9.46549561 184.84044189 -10.52083496 185.33713379 -11.6081543 185.84887695 C-12.74808838 186.39374756 -13.88802246 186.93861816 -15.0625 187.5 C-16.89889452 188.36519931 -18.73531084 189.23035334 -20.57240295 190.09407043 C-21.8911089 190.71430973 -23.20940721 191.33541631 -24.52732849 191.95732117 C-32.55145912 195.74145943 -40.61008045 199.45054474 -48.67111206 203.15527344 C-51.17306342 204.30586096 -53.67361988 205.45944048 -56.17407227 206.61328125 C-57.71363551 207.32176436 -59.25326445 208.03010473 -60.79296875 208.73828125 C-61.50832794 209.06891068 -62.22368713 209.3995401 -62.96072388 209.7401886 C-67.88580057 212 -67.88580057 212 -69 212 C-68.42515224 203.44268246 -67.55564047 194.98151708 -66.37109375 186.48828125 C-66.05518518 184.1608281 -65.73943464 181.8333535 -65.42382812 179.50585938 C-64.93025037 175.89833968 -64.43454547 172.29113392 -63.93579102 168.68432617 C-63.45012618 165.16140473 -62.97266664 161.63744248 -62.49609375 158.11328125 C-62.34611435 157.04636551 -62.19613495 155.97944977 -62.04161072 154.88020325 C-60.09404521 143.98938489 -60.09404521 143.98938489 -62.26757812 133.55688477 C-62.84958984 133.00315186 -63.43160156 132.44941895 -64.03125 131.87890625 C-64.99224609 130.91621826 -64.99224609 130.91621826 -65.97265625 129.93408203 C-66.64167969 129.29583496 -67.31070313 128.65758789 -68 128 C-69.24686865 126.66169865 -70.48649453 125.31661237 -71.71875 123.96484375 C-72.97778058 122.62109579 -74.23820127 121.27864896 -75.5 119.9375 C-76.12519531 119.26912109 -76.75039062 118.60074219 -77.39453125 117.91210938 C-80.46867493 114.63747806 -83.57430445 111.40689762 -86.76171875 108.2421875 C-89.05235177 105.9673231 -91.23828581 103.66425711 -93.3125 101.1875 C-96.86722412 97.04568343 -100.73360409 93.27165592 -104.66796875 89.4921875 C-107.18673757 86.80043791 -109.03832099 84.11162877 -111 81 C-107.8131438 80.35088599 -104.62549141 79.70600386 -101.4375 79.0625 C-100.38079102 78.84722656 -99.32408203 78.63195312 -98.23535156 78.41015625 C-91.23893671 77.00053092 -84.23309388 75.66983788 -77.20838928 74.4080658 C-72.95782096 73.64316192 -68.71001347 72.86344285 -64.46218872 72.08346558 C-62.32354559 71.69500003 -60.18361263 71.31356864 -58.04244995 70.9392395 C-54.98830035 70.40445082 -51.93949288 69.84526658 -48.890625 69.28125 C-47.96756058 69.12603378 -47.04449615 68.97081757 -46.09346008 68.81089783 C-40.60226224 67.76566675 -37.54429385 66.60338389 -34 62 C-32.26049842 59.34147984 -32.26049842 59.34147984 -30.80078125 56.45703125 C-29.95435059 54.85988281 -29.95435059 54.85988281 -29.09082031 53.23046875 C-28.50397461 52.10253906 -27.91712891 50.97460938 -27.3125 49.8125 C-26.37681746 48.04384968 -25.44112908 46.27520182 -24.5038147 44.50741577 C-23.57486424 42.75424368 -22.64898976 40.99944285 -21.72314453 39.24462891 C-19.45118029 34.96658913 -17.11485113 30.72722529 -14.75 26.5 C-14.16593384 25.45380493 -14.16593384 25.45380493 -13.57006836 24.38647461 C-12.79040664 22.99075179 -12.01021642 21.59532407 -11.22949219 20.20019531 C-8.93628166 16.09645956 -6.65677135 11.9851034 -4.375 7.875 C-3.52869863 6.35153317 -2.68234967 4.82809278 -1.8359375 3.3046875 C-1.23007813 2.21414062 -0.62421875 1.12359375 0 0 Z " fill="#000000" transform="translate(224,156)"/>
</svg>
