<?xml version="1.0" encoding="UTF-8"?>
<svg version="1.1" xmlns="http://www.w3.org/2000/svg" width="401" height="299">
<path d="M0 0 C1.01674805 0.00563965 2.03349609 0.0112793 3.08105469 0.01708984 C17.0964282 0.24386856 28.88477222 3.70612513 39.4375 13.3125 C50.99346585 25.6968505 54.34319584 42.09665588 53.98046875 58.609375 C53.22878163 68.11070019 50.62317904 77.27643828 47.6875 86.3125 C48.3475 86.6425 49.0075 86.9725 49.6875 87.3125 C49.75066406 86.68085937 49.81382812 86.04921875 49.87890625 85.3984375 C51.61434371 72.72061014 57.7644983 60.58399309 68 52.6875 C83.81234769 40.82170521 102.94526726 39.36331427 122.12841797 41.59667969 C135.285699 43.85984124 147.54605282 50.64309635 155.30078125 61.58984375 C159.07378855 67.51618028 161.5198567 73.65324966 163.6875 80.3125 C164.1 81.529375 164.5125 82.74625 164.9375 84 C165.185 84.763125 165.4325 85.52625 165.6875 86.3125 C166.3475 86.3125 167.0075 86.3125 167.6875 86.3125 C167.34976562 85.44109375 167.01203125 84.5696875 166.6640625 83.671875 C159.70149438 65.07819597 157.63585488 45.4212796 165.94335938 26.734375 C171.99569047 14.22169048 180.92399349 7.27761406 193.6875 2.3125 C200.41966006 0.26253273 206.99812035 -0.04053354 214 0 C215.01674805 0.00563965 216.03349609 0.0112793 217.08105469 0.01708984 C230.77682071 0.23869708 242.78092765 3.46394058 253 13.0625 C264.45668931 25.47977063 268.05646415 41.43205115 267.91015625 57.96484375 C267.26722967 67.63130135 264.72978689 77.14248631 261.6875 86.3125 C262.34234375 86.61800781 262.9971875 86.92351562 263.671875 87.23828125 C281.58442486 96.21985639 293.04454179 111.77554788 299.44677734 130.53759766 C305.03988299 148.33177736 311.02673633 175.65815926 302.6875 193.3125 C298.81947326 200.64947135 294.40685266 206.43018137 287.6875 211.3125 C286.99527344 211.82296875 286.30304688 212.3334375 285.58984375 212.859375 C266.89594884 225.30059494 241.78927217 227.54846022 220 227.375 C218.90494141 227.37048828 217.80988281 227.36597656 216.68164062 227.36132812 C214.01686691 227.34969156 211.35221483 227.33334564 208.6875 227.3125 C208.83058594 229.19582031 208.83058594 229.19582031 208.9765625 231.1171875 C210.01496319 246.11780696 209.71789016 257.57280283 199.5 269.375 C180.23159365 289.83397455 150.48840801 295.58297136 123.33935547 296.52832031 C80.22220184 297.68473226 80.22220184 297.68473226 59.6875 293.3125 C58.62329834 293.08771973 58.62329834 293.08771973 57.53759766 292.85839844 C39.48236959 288.86684133 19.23163594 281.54653092 8.73046875 265.28125 C4.00985543 256.18459367 2.27191969 248.37809423 2.875 238.25 C2.92688477 237.29899414 2.97876953 236.34798828 3.03222656 235.36816406 C4.99553784 203.31474512 11.13476834 172.6354359 35.0859375 149.48828125 C40.96494017 144.5714577 48.11475049 138.95228877 55.6875 137.3125 C51.8300508 120.93682754 51.8300508 120.93682754 40.43359375 109.51953125 C39.52738281 109.12121094 38.62117187 108.72289063 37.6875 108.3125 C36.66269531 107.86132812 35.63789063 107.41015625 34.58203125 106.9453125 C31.73953899 105.98143978 31.73953899 105.98143978 29.703125 107.47265625 C28.82914063 108.41431641 28.82914063 108.41431641 27.9375 109.375 C20.0796249 116.99293999 10.59797497 120.2948324 -0.1875 120.625 C-13.04383348 120.33500752 -23.54323435 114.40906807 -33.3125 106.3125 C-48.30432647 114.07517171 -56.89560003 123.13703482 -62.3125 139.3125 C-65.2091822 148.92787564 -66.74250627 158.50679011 -67.6875 168.5 C-67.78442139 169.48009033 -67.88134277 170.46018066 -67.98120117 171.4699707 C-68.52051654 178.09707338 -68.03399039 182.55811537 -64.4375 188.3125 C-53.64899518 200.25803287 -33.13701413 201.67049557 -18.11791992 203.09838867 C-12.73700583 203.679972 -9.17378099 204.16695293 -5.3125 208.3125 C-2.83648668 212.47670421 -3.15466358 215.68115432 -4.3125 220.3125 C-6.80101319 224.3118962 -8.84419527 225.96276381 -13.3125 227.3125 C-15.90495574 227.39920421 -18.30251731 227.3707133 -20.875 227.1875 C-21.9746106 227.11462769 -21.9746106 227.11462769 -23.09643555 227.0402832 C-42.93891652 225.46330073 -68.42135585 220.80787077 -82.3125 205.3125 C-93.84681593 190.38090336 -93.36500187 174.91262138 -91.125 156.9375 C-87.85203256 132.76163066 -79.83257181 108.97647945 -59.86328125 93.40234375 C-55.42841975 90.17397671 -51.60868172 87.88828701 -46.3125 86.3125 C-46.65023437 85.36890625 -46.98796875 84.4253125 -47.3359375 83.453125 C-54.1907253 63.9002077 -56.15152104 44.13412641 -47.1875 24.875 C-40.70714245 13.0190444 -31.2149326 5.63233045 -18.26879883 1.69018555 C-12.19097746 0.16275718 -6.24462184 -0.03614981 0 0 Z M-23.3125 31.3125 C-29.38552176 40.50247002 -30.48226605 51.48570172 -28.8828125 62.1875 C-26.52661327 73.12491863 -21.38524062 86.13402383 -12.06640625 92.95703125 C-5.79732248 96.29830763 -1.46334611 98.03276175 5.625 96.25 C15.21665428 93.01927813 20.03819166 86.02274268 24.6875 77.3125 C29.85662112 65.39697307 32.59028844 50.82628383 27.6875 38.3125 C23.96103128 31.18360332 19.93650521 26.85759281 12.25 24.0625 C0.17674472 21.49027095 -14.45163469 21.81871574 -23.3125 31.3125 Z M190.6875 31.3125 C183.85742843 41.85161705 183.3770625 53.77942124 185.8125 65.8125 C188.40275961 75.95464326 192.98808296 86.68929869 201.85546875 92.80859375 C206.6849617 95.66422359 211.04008357 97.96821531 216.7734375 96.9375 C225.60678711 94.52566393 231.52335252 88.51716894 236.3046875 80.9140625 C243.48307524 67.40896015 245.90502611 53.94012766 241.72265625 39.078125 C239.16367338 32.2412953 235.33716841 28.02390298 228.71484375 25.00390625 C216.58714216 20.86786929 199.81082531 21.5375086 190.6875 31.3125 Z M79.6875 72.3125 C78.945 73.034375 78.2025 73.75625 77.4375 74.5 C70.49417739 85.65891133 69.35603051 98.85904351 71.8125 111.5625 C75.62743154 126.63404568 82.3251125 139.69727648 95.6875 148.3125 C101.47817197 151.4979169 107.04513559 151.7986002 113.3671875 150.1484375 C121.59522887 147.1841263 126.49768468 141.56558709 131.64453125 134.703125 C134.69827079 131.12972423 136.76439388 130.4533128 141.375 129.75 C146.14594938 129.88083042 148.45411997 132.24740498 151.94921875 135.265625 C155.27658202 137.75284091 158.73966669 139.33690082 162.5 141.0625 C173.92288014 146.46126756 182.62594205 154.83405916 189.6875 165.3125 C190.25855469 166.14523438 190.82960938 166.97796875 191.41796875 167.8359375 C198.45051755 178.92035216 202.20799493 191.73536216 205.6875 204.3125 C245.95212531 205.2624308 245.95212531 205.2624308 280.6875 187.3125 C286.44615035 178.67452447 282.13484325 160.81685512 280.21484375 150.86181641 C276.89185713 135.31454659 271.65751982 121.43677708 258.6875 111.3125 C254.79693479 109.02041967 250.84509222 107.06983279 246.6875 105.3125 C246.10484375 105.83199219 245.5221875 106.35148437 244.921875 106.88671875 C235.13944161 115.2079396 224.68896117 119.75960917 211.78515625 119.5859375 C200.36689976 118.57802079 190.56596819 113.56732813 182.6875 105.3125 C173.72438957 108.00539327 166.24892677 112.77766373 160.6875 120.3125 C156.99024625 122.16112688 152.72288558 121.78837094 148.6875 121.3125 C145.75326805 119.51603146 144.21544645 118.3683929 142.6875 115.3125 C142.66683222 113.08333179 142.69643859 110.85362048 142.75 108.625 C142.88861288 95.03763697 142.04211851 81.23116009 132.37109375 70.8125 C124.90470372 64.16031028 114.10894924 62.80386422 104.42578125 63.06640625 C94.90986484 63.921617 86.6415693 65.44668032 79.6875 72.3125 Z M50.6171875 168.234375 C32.77235106 187.45189117 27.66571026 212.89811642 27.375 238.5 C27.34599609 239.36302734 27.31699219 240.22605469 27.28710938 241.11523438 C27.2204577 247.81629148 28.90493539 251.23246746 33.44140625 256.25390625 C52.56393738 273.39397195 82.46515945 273.53504634 106.75 273.5 C107.52340729 273.49939575 108.29681458 273.4987915 109.09365845 273.49816895 C132.30572809 273.44895714 160.83121418 272.80028427 179.6875 257.3125 C186.84141065 250.09834589 186.94032423 245.29437331 186.9362793 235.38427734 C186.67673706 212.10016478 181.1636882 186.03536099 164.51171875 168.796875 C159.0864839 164.02446924 151.14173202 157.3125 143.6875 157.3125 C141.48267625 158.78038538 139.65532376 160.20118492 137.6875 161.9375 C127.52001242 170.34322888 115.85849094 174.099446 102.6875 173.3125 C91.64806473 172.18273323 83.28180935 168.35703091 75.28125 160.66796875 C73.782283 159.09654494 73.782283 159.09654494 71.6875 159.3125 C71.6875 158.6525 71.6875 157.9925 71.6875 157.3125 C64.11608304 157.3125 55.96637979 163.12933672 50.6171875 168.234375 Z " fill="#000000" transform="translate(94.3125,1.6875)"/>
</svg>
