<?xml version="1.0" encoding="UTF-8"?>
<svg version="1.1" xmlns="http://www.w3.org/2000/svg" width="401" height="293">
<path d="M0 0 C2.07403119 2.58311158 4.13355678 5.17323669 6.15625 7.796875 C16.87141891 21.29798783 30.6243831 31.42510655 48 34 C66.32670756 35.80890413 82.0746798 31.23679089 96.61035156 19.72460938 C103.56311876 13.98595077 109.24993866 7.71048689 114 0 C119.05037717 2.67038693 123.00983147 5.48704038 127 9.5625 C127.51908936 10.09133789 128.03817871 10.62017578 128.57299805 11.16503906 C150.11445315 33.69864549 154.72259141 68.22964294 154.21484375 98.1015625 C153.76832751 106.20380272 151.14337512 111.80157358 146 118 C145.34 118 144.68 118 144 118 C144 118.66 144 119.32 144 120 C121.39442537 139.80720563 88.13640808 141.56699045 59.53833008 141.39111328 C56.43461328 141.374985 53.33219441 141.39110778 50.22851562 141.41015625 C22.90051006 141.43926329 -10.07811711 138.93175263 -31 119 C-39.05481627 110.35970149 -40.62689062 101.50814167 -40.2890625 89.99609375 C-38.82383262 59.60180839 -32.9193172 28.79398247 -10 7 C-6.7725175 4.48572342 -3.46005364 2.1814952 0 0 Z " fill="#000000" transform="translate(144,151)"/>
<path d="M0 0 C3.91519163 1.52551386 5.72476951 3.89470844 8.25 7.1875 C18.41491718 19.79922276 32.58596824 28.97439911 49.0625 30.75 C65.11986597 31.93780515 78.43889 26.60287757 91 17 C92.33333333 16 93.66666667 15 95 14 C95.89285289 16.91225841 96.76458136 19.82816171 97.625 22.75 C97.88023437 23.575 98.13546875 24.4 98.3984375 25.25 C98.74648438 26.44882813 98.74648438 26.44882813 99.1015625 27.671875 C99.32150879 28.4050293 99.54145508 29.13818359 99.76806641 29.89355469 C100.06348085 32.57653977 99.45790846 33.75999362 98 36 C95.609375 37.96484375 95.609375 37.96484375 92.75 39.9375 C91.75742188 40.64132813 90.76484375 41.34515625 89.7421875 42.0703125 C88.83726563 42.70710938 87.93234375 43.34390625 87 44 C62.92795477 61.81331347 53.33542296 94.78739687 49 123 C38.87753805 123.50124984 29.2041654 122.83059216 19.1875 121.25 C18.16342041 121.09305664 17.13934082 120.93611328 16.08422852 120.77441406 C0.74931014 118.20895128 -15.40617882 112.93700505 -26 101 C-35.75249334 86.80392456 -32.38192969 67.94686599 -29.62548828 51.80712891 C-25.93734452 32.00738499 -17.64646807 13.84719257 -1.5625 1.0625 C-1.046875 0.711875 -0.53125 0.36125 0 0 Z " fill="#000000" transform="translate(34,97)"/>
<path d="M0 0 C10.01090819 7.92530232 14.11567608 20.22037572 15.8125 32.5078125 C17.79036693 53.49612147 12.77993366 73.16185119 -0.125 90.0078125 C-8.47254772 99.65206667 -18.20481584 107.50588342 -31.4140625 108.7109375 C-44.57256424 108.96810692 -55.68221076 103.49930232 -65.1875 94.5078125 C-66.96750974 92.38319722 -68.59853277 90.32460614 -70.1875 88.0703125 C-70.61683838 87.46195557 -71.04617676 86.85359863 -71.48852539 86.22680664 C-83.64960745 68.41909902 -86.3698327 47.85735743 -83.71875 26.78125 C-81.07085907 14.8342183 -75.31811516 3.75425674 -64.875 -2.984375 C-45.1892646 -13.64748168 -18.50073011 -12.6201409 0 0 Z " fill="#000000" transform="translate(235.1875,54.4921875)"/>
<path d="M0 0 C17.30173953 11.7338925 25.96176358 29.64734866 30.00390625 49.69921875 C31.60077508 58.40274939 32.61111122 67.15849919 33 76 C33.06445312 77.02738281 33.12890625 78.05476563 33.1953125 79.11328125 C33.55287335 88.49329428 31.4380095 95.36395496 25.5 102.6875 C10.26962352 118.56180784 -15.93848511 122.19633693 -37 123 C-40.33352117 123.02346657 -43.66646545 123.01836546 -47 123 C-47.18792114 121.98184204 -47.18792114 121.98184204 -47.37963867 120.94311523 C-54.32198639 83.74409558 -66.44566237 56.41206621 -98 34 C-97.38379145 31.20612238 -96.75750305 28.41519074 -96.125 25.625 C-95.95097656 24.8309375 -95.77695312 24.036875 -95.59765625 23.21875 C-95.42363281 22.45820312 -95.24960937 21.69765625 -95.0703125 20.9140625 C-94.91320801 20.2123291 -94.75610352 19.5105957 -94.59423828 18.78759766 C-94 17 -94 17 -92 15 C-91.48953125 15.43570313 -90.9790625 15.87140625 -90.453125 16.3203125 C-77.4358465 26.98340234 -62.89312975 32.42617386 -46 31 C-26.57346923 28.41135064 -12.86907384 16.88376927 -1.328125 1.80078125 C-0.67070312 0.90939453 -0.67070312 0.90939453 0 0 Z " fill="#000000" transform="translate(367,97)"/>
<path d="M0 0 C1.00861084 0.00612305 2.01722168 0.01224609 3.05639648 0.01855469 C15.46176768 0.27881423 24.98088064 3.4239855 33.75 12.5625 C43.16303831 23.5563539 44.60812513 38.40780765 43.81152344 52.40429688 C42.37941606 68.01501707 34.49239463 85.10264971 22.625 95.4375 C13.49110704 102.1338203 4.8913991 104.36410985 -6.375 103.4375 C-13.2077804 102.16304723 -18.17828307 98.92848994 -23.375 94.4375 C-23.96023438 93.95796875 -24.54546875 93.4784375 -25.1484375 92.984375 C-35.43807594 83.76560391 -42.62239106 67.70610835 -43.53613281 54.02490234 C-43.90792602 31.8772677 -43.90792602 31.8772677 -40.375 23.4375 C-39.92253906 22.34115234 -39.92253906 22.34115234 -39.4609375 21.22265625 C-35.20102956 11.92358893 -28.77383153 6.26848084 -19.21386719 2.6105957 C-12.75908368 0.45494401 -6.77722605 -0.07013069 0 0 Z " fill="#000000" transform="translate(314.375,1.5625)"/>
<path d="M0 0 C1.01006104 0.00757324 2.02012207 0.01514648 3.06079102 0.02294922 C14.10243076 0.26679618 23.51831778 2.56711121 31.625 10.4375 C41.59202006 21.40122206 44.19561351 34.82062484 43.87109375 49.34765625 C42.5125003 66.40555177 35.84738521 83.30668262 22.91796875 94.85546875 C13.60803684 102.00393395 5.35737849 104.56681986 -6.375 103.4375 C-13.19987114 102.14978846 -18.18894208 98.94341918 -23.375 94.4375 C-23.9834375 93.9115625 -24.591875 93.385625 -25.21875 92.84375 C-38.04169112 80.9206644 -43.73623628 62.82055248 -44.40234375 45.7421875 C-44.55691026 33.37124633 -41.07396107 22.41881359 -34.1875 12.1875 C-24.6239776 2.83650032 -13.0548712 -0.13724771 0 0 Z " fill="#000000" transform="translate(88.375,1.5625)"/>
</svg>
