<?xml version="1.0" encoding="UTF-8"?>
<svg version="1.1" xmlns="http://www.w3.org/2000/svg" width="451" height="142">
<path d="M0 0 C12.54 0 25.08 0 38 0 C41.375 10.125 41.375 10.125 42.62573242 14.97875977 C42.90579636 16.05920059 43.18586029 17.13964142 43.47441101 18.25282288 C43.76516006 19.38755539 44.05590912 20.5222879 44.35546875 21.69140625 C44.66196854 22.87725815 44.96846832 24.06311005 45.28425598 25.28489685 C46.25495967 29.04334266 47.22129488 32.8028955 48.1875 36.5625 C48.84801824 39.12312145 49.50882256 41.68366913 50.16992188 44.24414062 C51.78325899 50.49524392 53.39301854 56.74726001 55 63 C60.13706164 42.02967023 65.1990625 21.05026443 70 0 C82.54 0 95.08 0 108 0 C108 0.99 108 1.98 108 3 C105.36 3 102.72 3 100 3 C100 32.04 100 61.08 100 91 C102.64 91 105.28 91 108 91 C108 91.99 108 92.98 108 94 C93.81 94 79.62 94 65 94 C65 93.01 65 92.02 65 91 C67.64 91 70.28 91 73 91 C72.67 66.91 72.34 42.82 72 18 C70.78441406 23.23488281 69.56882812 28.46976563 68.31640625 33.86328125 C67.54638153 37.17646909 66.77627267 40.48963692 66.00585938 43.80273438 C64.78262117 49.06320369 63.55969779 54.32374482 62.33862305 59.5847168 C61.35432275 63.82546311 60.36863251 68.06588414 59.38197136 72.30608177 C59.00549576 73.92510623 58.629524 75.54424793 58.25406075 77.16350746 C57.72872503 79.42873329 57.20161121 81.69353837 56.67407227 83.95825195 C56.51870499 84.63007004 56.36333771 85.30188812 56.20326233 85.99406433 C55.56812922 88.71357674 54.88392894 91.34821317 54 94 C47.73 94 41.46 94 35 94 C32.70467094 85.71509478 30.40953037 77.43013741 28.11471081 69.14509106 C27.04883824 65.29697219 25.98288689 61.44887518 24.91674805 57.60083008 C23.88560927 53.87909994 22.85468715 50.15730984 21.82390785 46.43548012 C21.43292075 45.0238874 21.0418589 43.61231538 20.65071678 42.20076561 C20.09791266 40.20575923 19.54538786 38.21067567 18.99291992 36.21557617 C18.52326057 34.52013924 18.52326057 34.52013924 18.04411316 32.79045105 C16.68676372 27.86285623 15.34482568 22.93102749 14 18 C13.67 42.09 13.34 66.18 13 91 C15.31 91 17.62 91 20 91 C20 91.99 20 92.98 20 94 C13.4 94 6.8 94 0 94 C0 93.01 0 92.02 0 91 C2.64 91 5.28 91 8 91 C8 61.96 8 32.92 8 3 C5.36 3 2.72 3 0 3 C0 2.01 0 1.02 0 0 Z " fill="#24BB3A" transform="translate(273,45)"/>
<path d="M0 0 C7.03650211 6.67432921 11.61776608 15.30667122 12.5234375 24.953125 C12.65104103 36.94785702 10.4688506 46.42734605 2.1875 55.375 C0.86386023 56.34518839 -0.46404831 57.30957348 -1.7956543 58.26879883 C-7.30399526 63.05467487 -8.02916359 68.89955983 -9.33203125 75.82421875 C-9.74470194 77.79530347 -10.15738178 79.76638633 -10.57060528 81.73735523 C-11.13723213 84.47877333 -11.67507639 87.22553582 -12.21325684 89.97265625 C-13.16347039 94.79556051 -14.15525041 99.61003255 -15.15299988 104.42329407 C-15.68028055 106.9815054 -16.19498511 109.54234808 -16.695755 112.10588074 C-16.92997665 113.26420914 -17.1641983 114.42253754 -17.40551758 115.6159668 C-17.70574577 117.14316597 -17.70574577 117.14316597 -18.01203918 118.70121765 C-18.86253647 121.54213701 -19.76110072 123.24160659 -21.8125 125.375 C-25.89415827 125.88520728 -27.34207297 125.68861802 -30.8125 123.375 C-31.58144287 121.00010165 -32.1677983 118.76333452 -32.6796875 116.33203125 C-32.83970245 115.61948181 -32.99971741 114.90693237 -33.1645813 114.17279053 C-33.68391831 111.8467778 -34.18594439 109.51740563 -34.6875 107.1875 C-35.03937339 105.59279855 -35.39224169 103.9983163 -35.74609375 102.40405273 C-36.45052382 99.22069217 -37.14786354 96.03591083 -37.83886719 92.84960938 C-38.69112262 88.92200517 -39.56419651 84.99936823 -40.4453125 81.078125 C-40.90167362 79.0313908 -41.3574545 76.9845271 -41.8125 74.9375 C-42.01987793 74.01106689 -42.22725586 73.08463379 -42.44091797 72.13012695 C-42.62541504 71.28409912 -42.80991211 70.43807129 -43 69.56640625 C-43.15855469 68.84654541 -43.31710938 68.12668457 -43.48046875 67.38500977 C-43.8125 65.375 -43.8125 65.375 -43.8125 61.375 C-44.92431641 61.00761719 -44.92431641 61.00761719 -46.05859375 60.6328125 C-53.16911686 57.38516932 -58.10815507 49.52016398 -60.8125 42.375 C-64.19198261 32.62499844 -63.34558573 23.00611627 -59.8125 13.375 C-54.5884131 3.43649322 -46.65895371 -3.14692978 -36.14453125 -6.91015625 C-23.78165174 -10.69978263 -10.23811978 -7.90190453 0 0 Z M-34.5625 19.1875 C-37.08259819 21.63759546 -38.03493786 22.95372658 -38.8125 26.375 C-38.80240622 31.34114218 -37.97379023 35.42338722 -34.8125 39.375 C-30.99291676 42.73160345 -27.15593429 42.94298612 -22.25390625 42.796875 C-17.5758501 41.9885069 -15.26030588 39.28347138 -12.4375 35.5625 C-11.1301092 30.98663222 -11.13616848 26.94124142 -13 22.625 C-15.86169238 19.07255428 -18.32740114 16.81736987 -22.75 15.5 C-27.52061652 15.30528096 -30.60954319 16.5821421 -34.5625 19.1875 Z " fill="#A81313" transform="translate(187.8125,10.625)"/>
<path d="M0 0 C3.34288272 2.93220916 4.7182382 6.1393844 5.58984375 10.39453125 C5.67433811 12.0128861 5.70763375 13.63432935 5.70336914 15.25488281 C5.70325584 16.69592377 5.70325584 16.69592377 5.70314026 18.16607666 C5.69797897 19.19537292 5.69281769 20.22466919 5.6875 21.28515625 C5.68608505 22.34490662 5.6846701 23.40465698 5.68321228 24.496521 C5.67761757 27.87921987 5.665066 31.2618524 5.65234375 34.64453125 C5.64732807 36.93880113 5.64276528 39.23307204 5.63867188 41.52734375 C5.62764986 47.14976219 5.61091696 52.77214198 5.58984375 58.39453125 C8.22984375 58.39453125 10.86984375 58.39453125 13.58984375 58.39453125 C13.58984375 59.38453125 13.58984375 60.37453125 13.58984375 61.39453125 C0.38984375 61.39453125 -12.81015625 61.39453125 -26.41015625 61.39453125 C-26.41015625 60.40453125 -26.41015625 59.41453125 -26.41015625 58.39453125 C-24.43015625 58.39453125 -22.45015625 58.39453125 -20.41015625 58.39453125 C-20.52766943 51.18615679 -20.65250253 43.97793598 -20.7824707 36.76977539 C-20.82583227 34.31667976 -20.86750644 31.86355372 -20.9074707 29.41040039 C-20.96514346 25.88809024 -21.02884677 22.36593341 -21.09375 18.84375 C-21.11046249 17.74367111 -21.12717499 16.64359222 -21.14439392 15.51017761 C-21.17431175 13.97892998 -21.17431175 13.97892998 -21.20483398 12.41674805 C-21.22037827 11.51740036 -21.23592255 10.61805267 -21.25193787 9.69145203 C-21.32502964 7.23276656 -21.32502964 7.23276656 -22.41015625 4.39453125 C-24.74087504 3.97582572 -24.74087504 3.97582572 -27.41015625 4.39453125 C-33.41806656 10.40244156 -33.72493961 16.45767667 -33.82421875 24.5078125 C-33.8435849 25.47736374 -33.86295105 26.44691498 -33.88290405 27.44584656 C-33.94253061 30.53281953 -33.98901765 33.61983013 -34.03515625 36.70703125 C-34.07335159 38.80405243 -34.11240423 40.90105819 -34.15234375 42.99804688 C-34.24821834 48.13008256 -34.33231202 53.26219168 -34.41015625 58.39453125 C-32.76015625 58.39453125 -31.11015625 58.39453125 -29.41015625 58.39453125 C-29.41015625 59.38453125 -29.41015625 60.37453125 -29.41015625 61.39453125 C-42.28015625 61.39453125 -55.15015625 61.39453125 -68.41015625 61.39453125 C-68.41015625 60.40453125 -68.41015625 59.41453125 -68.41015625 58.39453125 C-66.10015625 58.39453125 -63.79015625 58.39453125 -61.41015625 58.39453125 C-61.41015625 39.25453125 -61.41015625 20.11453125 -61.41015625 0.39453125 C-63.72015625 0.39453125 -66.03015625 0.39453125 -68.41015625 0.39453125 C-68.41015625 -0.59546875 -68.41015625 -1.58546875 -68.41015625 -2.60546875 C-57.19015625 -2.60546875 -45.97015625 -2.60546875 -34.41015625 -2.60546875 C-33.91515625 0.36453125 -33.91515625 0.36453125 -33.41015625 3.39453125 C-32.66765625 2.61078125 -31.92515625 1.82703125 -31.16015625 1.01953125 C-22.90308941 -6.86221437 -9.10061931 -6.45790368 0 0 Z " fill="#24BB3A" transform="translate(257.41015625,77.60546875)"/>
<path d="M0 0 C14.85 0 29.7 0 45 0 C45 0.99 45 1.98 45 3 C42.69 3 40.38 3 38 3 C38.00444122 3.72059601 38.00888245 4.44119202 38.01345825 5.18362427 C38.0538446 12.03696431 38.08413967 18.89028615 38.10362434 25.74371529 C38.11397895 29.26555663 38.12798205 32.78729813 38.15087891 36.30908203 C38.17714452 40.37533422 38.1865414 44.44148463 38.1953125 48.5078125 C38.20563507 49.74798126 38.21595764 50.98815002 38.22659302 52.26589966 C38.22985231 78.16100657 38.22985231 78.16100657 30.2421875 86.9296875 C21.39847055 95.28786705 11.64251108 96 0 96 C-7.69141735 95.36890935 -12.53359453 93.01029949 -18.375 87.9375 C-20.88026016 83.40876047 -20.63151972 79.05976645 -20 74 C-18.76039559 70.96296919 -17.98442973 69.61635755 -15.234375 67.89453125 C-12.52940785 66.8115986 -10.40828996 66.73402038 -7.5 66.75 C-6.5615625 66.74484375 -5.623125 66.7396875 -4.65625 66.734375 C-1.89515924 67.01048408 -0.30687102 67.4823217 2 69 C4.25414782 72.38122173 4.24544447 73.6064728 4.1875 77.5625 C4.18105469 78.53316406 4.17460937 79.50382812 4.16796875 80.50390625 C4 83 4 83 3 85 C1.02 85 -0.96 85 -3 85 C-3 86.98 -3 88.96 -3 91 C-1.54257537 91.08096803 -0.08387193 91.13917774 1.375 91.1875 C2.59316406 91.23970703 2.59316406 91.23970703 3.8359375 91.29296875 C4.55007812 91.19628906 5.26421875 91.09960938 6 91 C9.4593239 85.81101415 9.15656437 80.14217976 9.20532227 74.06689453 C9.22017166 72.90978218 9.22017166 72.90978218 9.23532104 71.72929382 C9.26673314 69.19716386 9.29161261 66.66501518 9.31640625 64.1328125 C9.33699333 62.37018363 9.35799025 60.60755951 9.37937927 58.84494019 C9.43441883 54.21887059 9.48390757 49.59275779 9.53222656 44.96661377 C9.58257433 40.2407245 9.63819092 35.51489752 9.69335938 30.7890625 C9.80071918 21.52609496 9.90221287 12.2630732 10 3 C6.7 3 3.4 3 0 3 C0 2.01 0 1.02 0 0 Z " fill="#25BB3A" transform="translate(22,45)"/>
<path d="M0 0 C7.16808492 8.01037788 8.41421672 18.3202955 7.875 28.6875 C7.26776763 38.15639318 5.09316722 46.15680688 -1.9375 52.875 C-12.6030468 60.47208591 -25.48102677 61.24582122 -38.125 59.1875 C-45.41051858 57.50352781 -52.01077175 54.043589 -56.65234375 48.0703125 C-62.73446935 37.68078488 -63.47001378 25.59961071 -60.8125 14.0625 C-57.94491152 4.92869965 -52.30328597 -0.6779243 -43.9375 -5.125 C-30.40044698 -10.11233532 -11.24380502 -10.10036722 0 0 Z M-31.75 -2.3125 C-36.31712541 6.10062575 -35.11952275 17.51761297 -35.125 26.8125 C-35.13724609 27.90240234 -35.14949219 28.99230469 -35.16210938 30.11523438 C-35.59917006 43.93707771 -35.59917006 43.93707771 -29.9375 55.875 C-26.9375 56.54166667 -26.9375 56.54166667 -23.9375 55.875 C-20.60247397 52.53997397 -19.81702725 49.10971545 -19.77636719 44.51464844 C-19.76675964 43.63653503 -19.7571521 42.75842163 -19.74725342 41.85369873 C-19.74300354 40.9068219 -19.73875366 39.95994507 -19.734375 38.984375 C-19.72867493 38.00639954 -19.72297485 37.02842407 -19.71710205 36.02081299 C-19.70765311 33.94959596 -19.70111849 31.8783639 -19.69726562 29.80712891 C-19.68758009 26.65109711 -19.65656372 23.49572215 -19.625 20.33984375 C-19.61846768 18.32552469 -19.61321811 16.31120098 -19.609375 14.296875 C-19.5970282 13.35809509 -19.5846814 12.41931519 -19.57196045 11.4520874 C-19.59041171 5.97577821 -19.78775255 0.02474745 -23.9375 -4.125 C-28.30756859 -4.68562911 -28.30756859 -4.68562911 -31.75 -2.3125 Z " fill="#24BB3A" transform="translate(129.9375,81.125)"/>
<path d="M0 0 C7.26226597 7.79625612 7.15625 14.58658942 7.15625 25.4609375 C-5.38375 25.4609375 -17.92375 25.4609375 -30.84375 25.4609375 C-30.43125 28.7815625 -30.01875 32.1021875 -29.59375 35.5234375 C-29.47354492 36.55605713 -29.35333984 37.58867676 -29.22949219 38.65258789 C-28.44755179 44.49291649 -27.22087034 48.60388219 -23.84375 53.4609375 C-19.9745405 56.1921442 -15.78509546 55.5840343 -11.2734375 54.98828125 C-5.81069479 53.80263773 -2.96416739 50.93112801 -0.03125 46.3984375 C1.3618428 44.04956583 2.28530032 42.07378654 3.15625 39.4609375 C4.47625 39.4609375 5.79625 39.4609375 7.15625 39.4609375 C6.63034404 46.47301701 3.20597672 51.21123745 -1.40625 56.2734375 C-8.86748348 61.92183931 -19.89358948 62.29675016 -28.84375 61.4609375 C-37.80872331 60.10773398 -45.92591325 57.49093436 -51.66015625 50.12890625 C-58.10890798 40.01291258 -59.30651094 29.40959268 -57.37890625 17.6171875 C-55.01293109 8.54528273 -49.98353658 2.52744042 -42.0703125 -2.35546875 C-30.22207994 -8.65373974 -10.65386491 -8.89326859 0 0 Z M-25.84375 -2.5390625 C-28.96932348 0.81803494 -29.97538762 3.95313386 -29.94140625 8.47265625 C-29.93818359 9.22998047 -29.93496094 9.98730469 -29.93164062 10.76757812 C-29.92326172 11.55326172 -29.91488281 12.33894531 -29.90625 13.1484375 C-29.90173828 13.94572266 -29.89722656 14.74300781 -29.89257812 15.56445312 C-29.8808085 17.52998007 -29.86287348 19.49546835 -29.84375 21.4609375 C-25.88375 21.4609375 -21.92375 21.4609375 -17.84375 21.4609375 C-17.78920591 19.10645075 -17.7498221 16.75325875 -17.71875 14.3984375 C-17.69554687 13.08746094 -17.67234375 11.77648437 -17.6484375 10.42578125 C-17.8905467 5.51096444 -18.26283736 1.04185014 -21.84375 -2.5390625 C-23.16375 -2.5390625 -24.48375 -2.5390625 -25.84375 -2.5390625 Z " fill="#24BB3A" transform="translate(442.84375,79.5390625)"/>
</svg>
