<?xml version="1.0" encoding="UTF-8"?>
<svg version="1.1" xmlns="http://www.w3.org/2000/svg" width="345" height="401">
<path d="M0 0 C0.57105469 0.52335938 1.14210937 1.04671875 1.73046875 1.5859375 C1.73046875 2.2459375 1.73046875 2.9059375 1.73046875 3.5859375 C2.72046875 3.9159375 3.71046875 4.2459375 4.73046875 4.5859375 C9.18775621 10.60837934 12.73046875 16.9932506 12.73046875 24.5859375 C13.60445312 24.00585938 14.4784375 23.42578125 15.37890625 22.828125 C34.73827045 10.38605877 57.2810225 4.905537 80.17626953 9.61206055 C92.28681199 12.58682173 104.26992311 18.43531356 113.73046875 26.5859375 C114.43042969 27.1325 115.13039063 27.6790625 115.8515625 28.2421875 C131.1957277 40.79408694 139.47564557 59.2620312 142.41796875 78.5859375 C142.54618207 79.9171737 142.64828467 81.25106887 142.73046875 82.5859375 C142.80974609 83.86984375 142.80974609 83.86984375 142.890625 85.1796875 C143.61584956 108.63912559 134.27835389 128.71321051 118.671875 145.76171875 C117.09813875 147.39558174 115.67045733 148.62341951 113.73977661 149.82928658 C109.45968143 152.50046188 109.45968143 152.50046188 106.92863464 156.71445847 C106.55972327 159.29780946 106.44112193 161.78844558 106.40625 164.39794922 C106.36343399 165.37154892 106.32061798 166.34514862 106.27650452 167.34825134 C106.15119633 170.57125126 106.09022968 173.79058015 106.04296875 177.015625 C106.02139709 178.12860081 105.99982544 179.24157661 105.9776001 180.38827896 C105.86894194 186.30640801 105.81291628 192.22253211 105.79638672 198.14160156 C105.77405846 202.98199694 105.65744584 207.80469344 105.44970703 212.640625 C103.47867229 243.1199461 103.47867229 243.1199461 115.921875 269.75488281 C121.87351766 276.22153207 128.57218168 281.74360671 135.51174259 287.11026573 C141.9910873 292.24580057 144.05850491 297.21122116 145.296875 305.2734375 C145.28611254 314.40000358 143.90272258 321.41368367 137.29296875 328.0234375 C136.44734375 328.5390625 135.60171875 329.0546875 134.73046875 329.5859375 C133.94411985 330.10516816 133.15777096 330.62439882 132.34759331 331.15936375 C127.01307738 333.26326708 121.97945184 333.00249537 116.29397583 332.97361755 C114.39590095 332.98169586 114.39590095 332.98169586 112.45948112 332.98993737 C108.95392017 333.00438883 105.44859439 333.00014827 101.94302058 332.99277055 C98.15968415 332.98804038 94.37639871 333.00054743 90.59307861 333.01078796 C83.18365558 333.02798465 75.77431732 333.02881413 68.3648795 333.02357506 C62.34200804 333.01953351 56.31916162 333.02097674 50.29629135 333.02632332 C49.01043246 333.02744595 49.01043246 333.02744595 47.69859662 333.02859126 C45.95710167 333.03012274 44.21560672 333.03166109 42.47411178 333.03320623 C26.14214872 333.04693458 9.81023356 333.04149138 -6.52172841 333.03002102 C-21.46013274 333.02008969 -36.39841319 333.03302697 -51.33679841 333.05695521 C-66.67808824 333.08134353 -82.01932037 333.09095465 -97.3606292 333.08430248 C-105.97257153 333.08080949 -114.58441861 333.08304756 -123.19634628 333.10055351 C-130.52803093 333.11527221 -137.85955324 333.1159154 -145.19123469 333.0984826 C-148.93101125 333.08996715 -152.67049778 333.08783604 -156.41025925 333.10313416 C-160.46676519 333.11952233 -164.52257074 333.10484119 -168.57907104 333.08714294 C-169.75786957 333.09674795 -170.93666809 333.10635296 -172.15118778 333.11624902 C-179.79429536 333.0475621 -185.58710625 332.16172857 -191.29296875 326.62109375 C-191.73898438 325.97011719 -192.185 325.31914062 -192.64453125 324.6484375 C-193.10601562 324.00003906 -193.5675 323.35164063 -194.04296875 322.68359375 C-197.1208948 317.41975206 -197.60800967 313.12866984 -197.58203125 307.1484375 C-197.59814453 306.41044922 -197.61425781 305.67246094 -197.63085938 304.91210938 C-197.63896701 295.79102121 -192.94216336 290.47645104 -186.82714844 284.14599609 C-182.42126858 279.73321047 -177.8175024 275.52365673 -173.234375 271.296875 C-172.62588809 270.72040789 -172.01740118 270.14394077 -171.39047527 269.55000496 C-170.01757538 268.27865221 -168.61027778 267.04307927 -167.16582203 265.85365105 C-163.22092809 262.40206083 -160.80121171 259.87092097 -160.28971863 254.53103638 C-160.25823961 252.61223594 -160.2699545 250.69240426 -160.31713867 248.77392578 C-160.31103577 247.71902451 -160.30493286 246.66412323 -160.29864502 245.57725525 C-160.28726665 242.1024963 -160.33147844 238.6307169 -160.375 235.15625 C-160.37509874 232.72215483 -160.37123468 230.28805659 -160.36360168 227.85397339 C-160.35216413 221.44570556 -160.38578004 215.03851787 -160.43151855 208.63043213 C-160.49803314 198.41184997 -160.50054088 188.19317786 -160.49483681 177.97442245 C-160.49987649 174.4305996 -160.52666529 170.88746833 -160.5566864 167.34378052 C-160.74317904 129.44963901 -148.90455625 95.12048747 -122.25390625 67.54296875 C-108.06108757 53.28182778 -87.57159748 38.79152691 -67.26953125 35.5859375 C-67.30433594 34.90789063 -67.33914062 34.22984375 -67.375 33.53125 C-67.71872538 21.71364407 -64.50022893 11.47320333 -56.453125 2.578125 C-39.99128019 -12.78626349 -17.94788512 -13.06857136 0 0 Z " fill="#000000" transform="translate(199.26953125,11.4140625)"/>
<path d="M0 0 C1.19885105 0.98636323 2.38633691 1.98669026 3.5625 3 C4.26246094 3.5465625 4.96242188 4.093125 5.68359375 4.65625 C21.02775895 17.20814944 29.30767682 35.6760937 32.25 55 C32.37821332 56.3312362 32.48031592 57.66513137 32.5625 59 C32.64177734 60.28390625 32.64177734 60.28390625 32.72265625 61.59375 C33.41214742 83.89729057 24.9701418 104.59170905 9.80395508 120.79492188 C-5.46916082 136.50823713 -26.79496919 144.04681706 -48.375 144.4375 C-67.09010968 144.2789824 -85.53548694 137.73718136 -99.4375 125 C-100.34113281 124.17628906 -101.24476563 123.35257813 -102.17578125 122.50390625 C-116.1971313 109.12765215 -126.18688851 90.73961778 -126.7109375 71.0703125 C-127.23956406 45.52309848 -121.09322504 26.481674 -103.33032227 7.50854492 C-76.20238045 -20.57064208 -31.23095861 -22.63471455 0 0 Z " fill="#FEFEFE" transform="translate(309.4375,35)"/>
<path d="M0 0 C23.43 0 46.86 0 71 0 C71 26.20645161 71 26.20645161 60.18359375 37.9765625 C52.77908348 45.0071076 43.35138256 48.35438241 33.1640625 48.14453125 C23.22695871 47.48086186 14.95710255 43.50135337 8.125 36.1875 C-1.01781714 24.9530478 0 14.75983273 0 0 Z " fill="#000000" transform="translate(138,352)"/>
</svg>
