<?xml version="1.0" encoding="UTF-8"?>
<svg version="1.1" xmlns="http://www.w3.org/2000/svg" width="105" height="105">
<path d="M0 0 C4.54598994 4.24359593 7.58820639 8.52848406 8.3359375 14.83203125 C8.43956277 22.73863919 7.63570552 28.09355045 2.1640625 33.97265625 C-3.80285199 39.53949027 -9.18094218 41.5800813 -17.34375 41.37109375 C-24.12801987 40.42329134 -29.3964126 37.26406771 -33.5625 31.875 C-37.82293491 25.67142055 -37.60679627 19.31622929 -37 12 C-35.33861069 5.79481102 -31.35751206 1.40260134 -26 -2 C-17.16039815 -6.427881 -8.10978483 -5.685386 0 0 Z M-23.875 11.6875 C-25.55422098 15.13923202 -25.73918262 18.29697936 -25 22 C-23.10553594 25.2561101 -21.69599157 27.3487671 -18.09765625 28.73046875 C-14.10299203 29.50486623 -12.3183836 29.16508779 -8.625 27.25 C-5.3459342 24.43937217 -4.08983815 22.97025198 -3.6875 18.625 C-4.02761259 14.679694 -4.42876121 12.98595473 -7 10 C-13.95299528 6.46251117 -17.82596095 6.24336486 -23.875 11.6875 Z " fill="#000000" transform="translate(56,7)"/>
<path d="M0 0 C1.14113754 -0.00855011 1.14113754 -0.00855011 2.30532837 -0.01727295 C3.91415012 -0.02671248 5.52299112 -0.03325278 7.13183594 -0.03710938 C9.58563165 -0.04681201 12.03858839 -0.0778428 14.4921875 -0.109375 C16.05728671 -0.11590585 17.62239189 -0.121156 19.1875 -0.125 C20.28304703 -0.1435202 20.28304703 -0.1435202 21.40072632 -0.16241455 C25.82541484 -0.14318828 28.76987104 0.35741855 32.2265625 3.203125 C32.82243827 7.28913028 32.54223634 8.72961425 30.2265625 12.203125 C26.65529242 13.66887494 22.84559455 13.26743706 19.046875 13.1953125 C17.62891345 13.17779301 16.21094423 13.16088504 14.79296875 13.14453125 C12.57221006 13.11362606 10.35183978 13.07813079 8.13134766 13.03173828 C5.97814232 12.98916213 3.8253883 12.96589435 1.671875 12.9453125 C0.38812988 12.9232373 -0.89561523 12.90116211 -2.21826172 12.87841797 C-7.36419729 13.34841483 -10.5893239 14.92300218 -14.0859375 18.703125 C-16.48350522 22.25507718 -16.90580697 24.98314482 -17.01953125 29.16796875 C-17.05240234 30.13283203 -17.08527344 31.09769531 -17.11914062 32.09179688 C-17.1802176 34.12033227 -17.23752448 36.14898477 -17.29101562 38.17773438 C-17.32517578 39.14388672 -17.35933594 40.11003906 -17.39453125 41.10546875 C-17.4195874 41.98710693 -17.44464355 42.86874512 -17.47045898 43.77709961 C-17.79698566 46.39168108 -18.28511486 48.02905747 -19.7734375 50.203125 C-23.2109375 51.140625 -23.2109375 51.140625 -26.7734375 51.203125 C-28.46899414 50.05883789 -28.46899414 50.05883789 -29.7734375 48.203125 C-30.42702647 44.04819473 -30.23639467 39.84105745 -30.2109375 35.640625 C-30.23091797 34.49787109 -30.25089844 33.35511719 -30.27148438 32.17773438 C-30.26622899 22.98607147 -28.83675328 15.28595115 -22.5234375 8.328125 C-15.91053813 2.28530316 -8.8245569 0.05106566 0 0 Z " fill="#000000" transform="translate(31.7734375,52.796875)"/>
<path d="M0 0 C2 1.625 2 1.625 3 4 C2.1280246 9.12285546 -0.346369 11.49464947 -4 15 C-2.68644531 15.01417969 -1.37289062 15.02835938 -0.01953125 15.04296875 C1.71618051 15.08987988 3.45185652 15.13812721 5.1875 15.1875 C6.05181641 15.19330078 6.91613281 15.19910156 7.80664062 15.20507812 C12.33481888 15.3612222 14.41845995 15.55546437 18.1171875 18.3828125 C20 21 20 21 19.9375 23.6875 C19 26 19 26 17 28 C14.84521484 28.31884766 14.84521484 28.31884766 12.2109375 28.4140625 C10.79941406 28.47207031 10.79941406 28.47207031 9.359375 28.53125 C8.37453125 28.5621875 7.3896875 28.593125 6.375 28.625 C5.38242188 28.66367188 4.38984375 28.70234375 3.3671875 28.7421875 C0.91164615 28.8366314 -1.5438841 28.92219875 -4 29 C-3.17822266 29.82902832 -3.17822266 29.82902832 -2.33984375 30.67480469 C2.98393515 36.13249794 2.98393515 36.13249794 3.0625 40.375 C2 43 2 43 0 45 C-3.62279065 45.47602367 -5.39362874 45.40778226 -8.45703125 43.34765625 C-9.23433594 42.59355469 -10.01164062 41.83945313 -10.8125 41.0625 C-11.66328125 40.24136719 -12.5140625 39.42023438 -13.390625 38.57421875 C-14.25171875 37.72472656 -15.1128125 36.87523437 -16 36 C-16.86109375 35.22269531 -17.7221875 34.44539063 -18.609375 33.64453125 C-22.12209522 30.3947057 -24.62927953 27.88046113 -26.5 23.4375 C-25.72823343 18.13160486 -22.74510113 15.6566839 -19 12 C-18.04877756 11.02930319 -17.09967378 10.05652713 -16.15234375 9.08203125 C-6.59828821 -0.67329472 -6.59828821 -0.67329472 0 0 Z " fill="#000000" transform="translate(84,59)"/>
</svg>
